<svg width="117" height="222" viewBox="0 0 117 222" fill="none" xmlns="http://www.w3.org/2000/svg">
<path d="M16.7216 24.4707H8.43311L11.9853 59.2034L12.7747 86.8316H22.2472L18.3003 59.2034L16.7216 24.4707Z" fill="#216E7A"/>
<path d="M21.0984 91.5679H14.4384C13.9707 91.5679 13.6056 91.9723 13.6532 92.4376L17.1164 126.301L17.8839 153.162C17.8961 153.589 18.2458 153.929 18.6729 153.929H26.4682C26.9485 153.929 27.3176 153.503 27.2496 153.028L23.4314 126.301L21.8869 92.3214C21.8678 91.8998 21.5204 91.5679 21.0984 91.5679Z" fill="#216E7A"/>
<path d="M37.2288 115.249L29.6318 115.249C29.1676 115.249 28.8036 115.648 28.8457 116.11L30.4826 134.078L30.4826 150.288C30.4826 150.757 30.8894 151.123 31.3559 151.073L39.4505 150.208C39.9006 150.16 40.2181 149.744 40.1459 149.297L37.6519 133.871C37.6443 133.823 37.641 133.776 37.642 133.728L38.018 116.055C38.0274 115.613 37.6713 115.249 37.2288 115.249Z" fill="#216E7A"/>
<path d="M26.2292 158.665H19.5693C19.1016 158.665 18.7364 159.069 18.784 159.535L22.2406 193.332C22.245 193.376 22.2459 193.42 22.243 193.463L21.5121 204.793C21.4827 205.248 21.8439 205.633 22.2998 205.633H29.9736C30.4698 205.633 30.8429 205.181 30.7486 204.694L28.5733 193.454C28.566 193.417 28.5614 193.378 28.5597 193.34L27.0178 159.419C26.9986 158.997 26.6513 158.665 26.2292 158.665Z" fill="#216E7A"/>
<path d="M3.85475 173.18C8.44773 170.441 15.0302 161.265 15.5099 154.322C15.5399 153.887 15.1901 153.615 14.8255 153.854C11.9606 155.733 3.11014 165.507 2.87467 172.602C2.85709 173.132 3.39954 173.451 3.85475 173.18Z" fill="#216E7A"/>
<path d="M0.790966 146.966C2.48064 151.864 9.01621 152.676 13.5683 152.476C13.8627 152.463 14.1487 152.277 14.1336 151.983C14.0153 149.67 6.46362 146.472 1.50116 146.076C1.00437 146.036 0.628442 146.495 0.790966 146.966Z" fill="#216E7A"/>
<path d="M26.4336 105.378C32.1606 104.148 41.8952 97.0733 44.1929 90.4221C44.3352 90.0101 44.07 89.64 43.6478 89.7489C40.1272 90.6567 27.6663 97.6814 25.6594 104.558C25.5162 105.049 25.9338 105.486 26.4336 105.378Z" fill="#216E7A"/>
<path d="M105.489 126.537C102.035 131.268 91.6116 137.282 84.601 136.675C84.1667 136.637 83.9366 136.245 84.2078 135.903C86.4695 133.057 97.9564 124.532 105.055 125.497C105.561 125.565 105.79 126.125 105.489 126.537Z" fill="#216E7A"/>
<path d="M115.463 44.1453C109.303 49.6827 92.7228 54.7477 83.7551 51.2904C83.3483 51.1335 83.2116 50.6837 83.5408 50.398C87.0494 47.3527 106.41 38.8287 115.303 43.0102C115.757 43.2234 115.836 43.8103 115.463 44.1453Z" fill="#216E7A"/>
<path d="M89.9255 26.2624C90.3301 32.7412 85.7256 45.0924 79.4672 49.0773C79.0995 49.3115 78.6683 49.1465 78.6562 48.7107C78.5484 44.8149 82.342 29.3828 88.945 25.7128C89.3825 25.4697 89.8943 25.7629 89.9255 26.2624Z" fill="#216E7A"/>
<path d="M101.619 69.3923C98.6628 63.1443 88.9034 54.3206 82.2376 54.2751C81.8017 54.2721 81.5217 54.652 81.7201 55.0403C83.5645 58.6506 94.3553 70.8493 101.098 70.3451C101.569 70.3099 101.821 69.8187 101.619 69.3923Z" fill="#216E7A"/>
<path d="M54.4235 23.3674L46.1487 22.8921L47.7033 57.7713L46.907 85.3993L56.364 85.9425L54.0079 58.1334L54.4235 23.3674Z" fill="#216E7A"/>
<path d="M78.6473 1.33933L70.4678 0L68.3608 34.8502L64.6754 62.2429L74.0235 63.7736L74.5929 35.8706L78.6473 1.33933Z" fill="#216E7A"/>
<path d="M88.0693 74.6195L77.3818 72.6228L74.5018 107.443L69.5853 134.65L81.7996 136.932L82.6447 108.964L88.0693 74.6195Z" fill="#216E7A"/>
<path d="M54.9451 90.6051L48.2961 90.2232C47.8292 90.1964 47.4414 90.5792 47.4623 91.0465L48.9779 125.052L48.2038 151.914C48.1915 152.341 48.5211 152.7 48.9476 152.724L56.73 153.171C57.2096 153.199 57.6023 152.795 57.5618 152.317L55.2826 125.414L55.6892 91.4027C55.6942 90.9807 55.3664 90.6293 54.9451 90.6051Z" fill="#216E7A"/>
<path d="M72.1241 68.2621L65.5517 67.1859C65.0901 67.1104 64.6644 67.4504 64.6362 67.9173L62.582 101.895L58.9989 128.527C58.9419 128.951 59.2321 129.343 59.6537 129.412L67.3465 130.671C67.8205 130.749 68.2534 130.389 68.2632 129.908L68.8141 102.915L72.7805 69.1332C72.8298 68.714 72.5406 68.3303 72.1241 68.2621Z" fill="#216E7A"/>
<path d="M79.5418 141.332L70.4723 139.637C70.0028 139.549 69.5506 139.893 69.5114 140.367L66.7054 174.291L61.8541 202.966C61.7791 203.409 62.0927 203.814 62.5428 203.855L72.7066 204.767C73.1655 204.809 73.5743 204.454 73.5946 203.998L74.8483 175.813L80.1571 142.201C80.2222 141.79 79.9525 141.408 79.5418 141.332Z" fill="#216E7A"/>
<path d="M56.2313 157.887L49.5701 157.504C49.1035 157.477 48.716 157.859 48.7361 158.326L49.8731 184.657C49.8748 184.695 49.8737 184.734 49.8698 184.771L47.9826 203.266C47.9382 203.701 48.2559 204.089 48.691 204.132L58.8037 205.122C59.3091 205.171 59.729 204.737 59.6633 204.234L57.0467 184.182L56.9754 158.672C56.9742 158.255 56.6481 157.91 56.2313 157.887Z" fill="#216E7A"/>
<path d="M34.3505 68.0937C32.2679 74.2776 38.7323 81.0833 43.723 85.0196C43.9489 85.1977 44.2745 85.2497 44.4645 85.0336C46.3236 82.9188 40.5234 72.66 35.4934 67.8329C35.1202 67.4747 34.5156 67.6036 34.3505 68.0937Z" fill="#216E7A"/>
<path d="M96.1342 157.119C90.1469 156.702 86.2296 148.609 84.3401 142.808C84.2519 142.537 84.3137 142.213 84.5837 142.123C87.0274 141.303 94.1184 149.994 96.7898 156.148C96.9984 156.629 96.6569 157.156 96.1342 157.119Z" fill="#216E7A"/>
<path d="M39.0909 154.291L31.4939 154.291C31.0296 154.291 30.6656 154.69 30.7078 155.152L32.3447 173.119L32.3447 204.36C32.3447 204.829 32.7514 205.195 33.2179 205.145L41.3734 204.274C41.8001 204.228 42.1122 203.85 42.0762 203.422L39.5025 172.841L39.8801 155.097C39.8895 154.655 39.5334 154.291 39.0909 154.291Z" fill="#216E7A"/>
</svg>
