<svg width="353" height="242" viewBox="0 0 353 242" fill="none" xmlns="http://www.w3.org/2000/svg">
<rect x="5.39429" y="5" width="341.896" height="231.792" stroke="#B9D5D9" stroke-width="10"/>
<path d="M262.787 52.8938L262.782 52.8872L262.778 52.8806C241.92 24.9365 206.089 7.29546 168.063 5.20843L168.061 5.20836C129.994 3.12948 89.0576 16.6656 66.2703 45.4299L66.2676 45.4333C43.6443 74.0421 40.2859 116.942 50.4854 153.508L50.4886 153.519L50.4918 153.531C60.874 190.074 85.249 221.854 115.633 232.098C146.064 242.542 181.016 230.389 210.54 214.922C240.427 199.361 267.581 178.804 278.537 148.934C289.452 119.175 283.565 80.9231 262.787 52.8938Z" stroke="#B9D5D9" stroke-width="10"/>
</svg>
