<svg width="640" height="258" viewBox="0 0 640 258" fill="none" xmlns="http://www.w3.org/2000/svg">
<path d="M-54.808 63.4228L-119.231 125.841C-123.558 130.033 -126 135.8 -126 141.825V207.834C-126 220.126 -116.036 230.091 -103.744 230.091H-64.9772H122.435H288.678H416.618C419.142 230.091 421.647 230.52 424.027 231.36L495.888 256.73C498.268 257.571 500.773 258 503.297 258H606.968C609.265 258 611.548 257.644 613.736 256.946L748.594 213.896C750.782 213.198 753.065 212.842 755.362 212.842H896.673H953.603C961.431 212.842 968.684 208.729 972.703 202.011L991.444 170.68C993.51 167.227 994.6 163.278 994.6 159.255V87.3279C994.6 75.0362 984.636 65.0717 972.344 65.0717H964.497C959.728 65.0717 955.086 63.5403 951.254 60.7029L876.242 5.16772C872.067 2.07653 866.942 0.543328 861.755 0.83376L760.621 6.49654C755.013 6.81057 749.731 9.23368 745.834 13.2798L682.183 79.3761C677.988 83.7326 672.2 86.1941 666.152 86.1941H617.479C612.894 86.1941 608.422 84.7784 604.672 82.1404L552.399 45.3628C548.65 42.7248 544.177 41.309 539.593 41.309H428.39C423.244 41.309 418.257 43.0925 414.277 46.3559L336.438 110.191C332.459 113.454 327.471 115.237 322.325 115.237H222.575C217.77 115.237 213.093 113.682 209.245 110.804L143.435 61.5842C139.587 58.7061 134.911 57.1508 130.105 57.1508H-39.3212C-45.1021 57.1508 -50.6562 59.4002 -54.808 63.4228Z" fill="#2A808D" fill-opacity="0.3"/>
</svg>
