<svg width="1920" height="463" viewBox="0 0 1920 463" fill="none" xmlns="http://www.w3.org/2000/svg">
<path d="M106.95 113.296L-8.83377 225.477C-16.6103 233.011 -21 243.376 -21 254.204V372.84C-21 394.931 -3.09142 412.84 19 412.84H88.6733H425.5H724.28H954.221C958.757 412.84 963.26 413.611 967.537 415.121L1096.69 460.718C1100.97 462.228 1105.47 463 1110 463H1296.33C1300.46 463 1304.56 462.361 1308.49 461.106L1550.86 383.734C1554.8 382.479 1558.9 381.84 1563.03 381.84H1817H1919.32C1933.39 381.84 1946.42 374.448 1953.64 362.373L1987.33 306.064C1991.04 299.858 1993 292.761 1993 285.53V156.259C1993 134.168 1975.09 116.259 1953 116.259H1938.9C1930.33 116.259 1921.98 113.507 1915.09 108.408L1780.28 8.59694C1772.78 3.0413 1763.57 0.285744 1754.24 0.807723L1572.48 10.9852C1562.4 11.5495 1552.91 15.9045 1545.9 23.1763L1431.51 141.968C1423.97 149.798 1413.57 154.222 1402.7 154.222H1315.22C1306.98 154.222 1298.94 151.677 1292.2 146.936L1198.25 80.8375C1191.52 76.0964 1183.48 73.5519 1175.24 73.5519H975.378C966.129 73.5519 957.166 76.7573 950.014 82.6225L810.117 197.349C802.966 203.214 794.002 206.42 784.753 206.42H605.477C596.84 206.42 588.436 203.625 581.52 198.452L463.243 109.991C456.327 104.819 447.922 102.024 439.286 102.024H134.784C124.394 102.024 114.412 106.066 106.95 113.296Z" fill="#2A808D" fill-opacity="0.3"/>
</svg>
