<svg xmlns="http://www.w3.org/2000/svg" fill="none" viewBox="0 0 117 222">
  <path fill="#216E7A" d="M16.7216 24.4707H8.43311l3.55219 34.7327.7894 27.6282h9.4725l-3.9469-27.6282-1.5787-34.7327zM21.0984 91.5679h-6.66c-.4677 0-.8328.4044-.7852.8697l3.4632 33.8634.7675 26.861c.0122.427.3619.767.789.767h7.7953c.4803 0 .8494-.426.7814-.901l-3.8182-26.727-1.5445-33.9796c-.0191-.4216-.3665-.7535-.7885-.7535zM37.2288 115.249h-7.597c-.4642 0-.8282.399-.7861.861l1.6369 17.968v16.21c0 .469.4068.835.8733.785l8.0946-.865c.4501-.048.7676-.464.6954-.911l-2.494-15.426c-.0076-.048-.0109-.095-.0099-.143l.376-17.673c.0094-.442-.3467-.806-.7892-.806zM26.2292 158.665h-6.6599c-.4677 0-.8329.404-.7853.87l3.4566 33.797c.0044.044.0053.088.0024.131l-.7309 11.33c-.0294.455.3318.84.7877.84h7.6738c.4962 0 .8693-.452.775-.939l-2.1753-11.24c-.0073-.037-.0119-.076-.0136-.114l-1.5419-33.921c-.0192-.422-.3665-.754-.7886-.754zM3.85475 173.18c4.59298-2.739 11.17545-11.915 11.65515-18.858.03-.435-.3198-.707-.6844-.468-2.8649 1.879-11.71536 11.653-11.95083 18.748-.01758.53.52487.849.98008.578zM.790966 146.966c1.689674 4.898 8.225244 5.71 12.777334 5.51.2944-.013.5804-.199.5653-.494-.1183-2.312-7.66998-5.51-12.63244-5.906-.49679-.04-.872718.419-.710194.89zM26.4336 105.378c5.727-1.23 15.4616-8.3047 17.7593-14.9559.1423-.412-.1229-.7821-.5451-.6732-3.5206.9078-15.9815 7.9325-17.9884 14.8091-.1432.491.2744.928.7742.82zM105.489 126.537c-3.454 4.731-13.8771 10.745-20.8877 10.138-.4344-.038-.6644-.431-.3932-.772 2.2617-2.847 13.7486-11.371 20.8469-10.407.506.069.736.628.434 1.041zM115.463 44.1453c-6.16 5.5374-22.7405 10.6024-31.7082 7.1451-.4068-.1569-.5435-.6067-.2142-.8924 3.5086-3.0453 22.8684-11.5693 31.7624-7.3878.453.2132.532.8001.16 1.1351zM89.9252 26.2624c.4046 6.4788-4.1998 18.83-10.4582 22.8149-.3678.2342-.7989.0692-.811-.3666-.1079-3.8958 3.6857-19.3279 10.2888-22.9979.4374-.2431.9493.0501.9804.5496zM101.619 69.3922c-2.9562-6.2481-12.7156-15.0718-19.3814-15.1172-.4359-.003-.7159.3769-.5175.7652 1.8444 3.6103 12.6352 15.8089 19.3779 15.3047.471-.0351.723-.5263.521-.9527zM54.4235 23.3673l-8.2748-.4753 1.5546 34.8792-.7963 27.628 9.457.5432-2.3561-27.8091.4156-34.766zM78.6471 1.33933L70.4675 0l-2.1069 34.8502-3.6854 27.3927 9.348 1.5307.5694-27.903 4.0545-34.53127zM88.0691 74.6195l-10.6875-1.9967-2.88 34.8202-4.9166 27.207 12.2143 2.282.8451-27.968 5.4247-34.3445zM54.9451 90.605l-6.649-.3819c-.4669-.0268-.8547.356-.8338.8232l1.5156 34.0057-.7741 26.861c-.0123.427.3173.787.7438.811l7.7824.447c.4796.028.8723-.376.8318-.854l-2.2792-26.903.4066-34.0115c.005-.422-.3228-.7733-.7441-.7975zM72.1239 68.262l-6.5724-1.0762c-.4616-.0756-.8873.2645-.9155.7314l-2.0542 33.9778-3.5832 26.632c-.0569.424.2333.815.6548.884l7.6928 1.26c.4741.078.907-.283.9168-.763l.5508-26.993 3.9665-33.7819c.0492-.4192-.24-.8029-.6564-.8711zM79.5418 141.332l-9.0695-1.695c-.4695-.087-.9217.256-.9609.73l-2.806 33.925-4.8513 28.674c-.075.444.2386.848.6887.889l10.1638.912c.4589.042.8677-.313.888-.769l1.2537-28.185 5.3088-33.611c.0651-.412-.2046-.794-.6153-.87zM56.2313 157.887l-6.6612-.383c-.4666-.027-.8541.355-.834.822l1.137 26.331c.0017.038.0006.077-.0033.115l-1.8872 18.494c-.0444.435.2733.823.7084.866l10.1127.99c.5054.049.9253-.384.8596-.888l-2.6166-20.052-.0713-25.509c-.0012-.418-.3273-.762-.7441-.786zM34.3505 68.0936c-2.0826 6.1839 4.3818 12.9896 9.3725 16.9258.2259.1782.5515.2301.7415.014 1.8591-2.1148-3.9411-12.3735-8.9711-17.2007-.3732-.3581-.9778-.2293-1.1429.2609zM96.1342 157.119c-5.9873-.417-9.9046-8.51-11.7941-14.311-.0882-.271-.0264-.595.2436-.685 2.4437-.82 9.5347 7.871 12.2061 14.025.2086.481-.1329 1.008-.6556.971zM39.0909 154.291h-7.597c-.4643 0-.8283.399-.7861.861l1.6369 17.967v31.241c0 .469.4067.835.8732.785l8.1555-.871c.4267-.046.7388-.424.7028-.852l-2.5737-30.581.3776-17.744c.0094-.442-.3467-.806-.7892-.806z"/>
</svg>
