<svg xmlns="http://www.w3.org/2000/svg" fill="none" viewBox="0 0 169 155">
  <path fill="#0A5D69" d="M168.508 79.5c1.241-18.3434-15.086-45.5056-20.5-46.5 0 0-30 46.5-44 74.5.44 4.344 2.262 6.642 2 11-.271 4.5-5.655 7.041-3.5 11 2.364 4.342 12.5 2 12.5 2 14-2.5 15-23 16.5-23.5 2.5 3.5 5.143 14.5 4 18.5-1 3.5-4.137 5.232-3 8.5 1.265 3.637 5 5 8.5 5 8.5.5 15.5-6 20-12 8.5-13 8.5-35.4998 7.5-48.5z"/>
  <rect width="123" height="92" x="40" y="17" fill="#F3F6F7" rx="46"/>
  <path fill="#0A5D69" d="M87.4244 107.5c9.5-28 3.4999-76-19.0001-86.5-8.3348.3358-20.9999 8-20.9999 8s-28.9757 34.9211-32 62c.5 10.5 6.5005 27.5 4.5 42-2.5 2.39-3 3-4.5 5.5-2 4 3.4999 6.5 7.5 6.5 5 0 11.3758-1.841 16.5-6.5 6.6285-6.027 5.9999-14 8-21.5 3.5 4.5 2.9999 21.5.4999 25.5-3.5 6-2.9999 8-.4999 10.5 7 3.833 20.5 0 26.5-8 8.5-13.5 9.2155-22 13.5-37.5z"/>
  <circle cx="13.5" cy="19.5" r="13.5" fill="#0A5D69"/>
  <circle cx="54.5" cy="13.5" r="13.5" fill="#0A5D69"/>
  <rect width="79" height="71" y="9" fill="#F3F6F7" rx="35.5"/>
  <ellipse cx="54.6304" cy="38.6025" fill="#0A5D69" rx="8.85868" ry="11.6027" transform="rotate(-31.876 54.6304 38.6025)"/>
  <ellipse fill="#0A5D69" rx="8.85868" ry="11.6027" transform="scale(-1 1) rotate(-11.83167 221.924748 125.658612)"/>
  <path fill="#0A5D69" d="M33.4999 57c.7332 3.7197 7.5 5.5 8.4998 5.5.9998 0 7.4848-5.611 5.5-9.5-2-3.5-14.4997-.5-13.9998 4z"/>
  <ellipse cx="23.5" cy="46" fill="#F3F6F7" rx="2.5" ry="3"/>
  <ellipse cx="50.5" cy="38" fill="#F3F6F7" rx="2.5" ry="3"/>
</svg>
