<svg width="640" height="260" viewBox="0 0 640 260" fill="none" xmlns="http://www.w3.org/2000/svg">
<path d="M-54.6818 58.4132L-118.628 115.935C-123.32 120.156 -126 126.171 -126 132.482V191.01C-126 203.302 -116.036 213.266 -103.744 213.266H-69.3581C-66.4653 213.266 -63.6002 212.702 -60.9231 211.606L44.693 168.351C47.37 167.255 50.2351 166.691 53.128 166.691H220.132C225.012 166.691 229.756 168.294 233.635 171.255L282.697 208.702C286.576 211.662 291.321 213.266 296.201 213.266H414.362C418.336 213.266 422.237 214.33 425.66 216.347L494.255 256.761C497.678 258.778 501.579 259.841 505.552 259.841H606.012C608.932 259.841 611.822 259.267 614.52 258.151L675.617 232.877L749.169 213.967C750.98 213.501 752.842 213.266 754.711 213.266H862.87C867.371 213.266 871.767 211.901 875.477 209.351L951.459 157.123C955.168 154.573 959.564 153.208 964.066 153.208H972.344C984.636 153.208 994.6 143.244 994.6 130.952V82.3139C994.6 70.0221 984.636 60.0577 972.344 60.0577H964.066C959.564 60.0577 955.168 58.6926 951.459 56.1426L876.003 4.277C871.968 1.5033 867.131 0.137777 862.241 0.391987L760.201 5.69659C754.845 5.97502 749.77 8.178 745.909 11.9003L682.083 73.4346C677.935 77.4337 672.398 79.6683 666.636 79.6683H617.059C612.736 79.6683 608.507 78.4094 604.888 76.0453L552.184 41.6187C548.565 39.2546 544.335 37.9957 540.013 37.9957H427.94C423.069 37.9957 418.333 39.5935 414.457 42.5442L336.258 102.084C332.383 105.035 327.646 106.633 322.776 106.633H222.142C217.605 106.633 213.175 105.246 209.448 102.658L143.232 56.6787C139.505 54.0907 135.076 52.7037 130.538 52.7037H-39.7974C-45.2936 52.7037 -50.5955 54.7374 -54.6818 58.4132Z" fill="#2A808D" fill-opacity="0.3"/>
</svg>
