<svg width="640" height="258" viewBox="0 0 640 258" fill="none" xmlns="http://www.w3.org/2000/svg">
<path d="M-54.808 62.7306L-119.231 125.149C-123.558 129.341 -126 135.108 -126 141.133V207.142C-126 219.434 -116.036 229.398 -103.744 229.398H-64.9772H122.435H288.678H416.618C419.142 229.398 421.647 229.828 424.027 230.668L495.888 256.038C498.268 256.879 500.773 257.308 503.297 257.308H606.968C609.265 257.308 611.548 256.952 613.736 256.254L748.594 213.204C750.782 212.505 753.065 212.15 755.362 212.15H896.673H952.74C960.433 212.15 967.58 208.177 971.642 201.644L991.246 170.107C993.438 166.58 994.6 162.51 994.6 158.357V86.6358C994.6 74.344 984.636 64.3795 972.344 64.3795H964.497C959.728 64.3795 955.086 62.8481 951.254 60.0108L876.242 4.47555C872.067 1.38436 866.942 -0.148841 861.755 0.141591L760.621 5.80437C755.013 6.1184 749.731 8.54151 745.834 12.5876L682.183 78.6839C677.988 83.0405 672.2 85.5019 666.152 85.5019H617.479C612.894 85.5019 608.422 84.0862 604.672 81.4482L552.399 44.6706C548.65 42.0326 544.177 40.6168 539.593 40.6168H428.39C423.244 40.6168 418.257 42.4003 414.277 45.6638L336.438 109.498C332.459 112.762 327.471 114.545 322.325 114.545H222.575C217.77 114.545 213.093 112.99 209.245 110.112L143.435 60.892C139.587 58.0139 134.911 56.4586 130.105 56.4586H-39.3212C-45.1021 56.4586 -50.6562 58.708 -54.808 62.7306Z" fill="#2A8086"/>
</svg>
