<svg xmlns="http://www.w3.org/2000/svg" fill="none" viewBox="0 0 78 61">
  <defs/>
  <path fill="#C5E1E6" fill-rule="evenodd" d="M21.3872 42.1663v-6.4047h11.2833c.2353 0 .466.016.6969.032.0269.0018.0538.0037.0807.0055l-1.6308 3.1648H24.611v3.2024c0 4.4144 3.6155 8.0059 8.0595 8.0059h8.0594v-3.2024c0-3.5002-2.2872-6.4496-5.4432-7.5336l-1.7819-3.6339c5.8318.4275 10.4489 5.2688 10.4489 11.1675v3.2024c0 1.766-1.4458 3.2023-3.2238 3.2023h-8.0594c-6.2203 0-11.2833-5.0293-11.2833-11.2082zm39.4631-6.364c.0048-.0081.0283-.0407.0283-.0407l.0284.0375c.0269-.0018.0538-.0037.0807-.0055.2309-.016.4616-.032.6969-.032h11.2833v6.4047c0 6.1789-5.063 11.2082-11.2833 11.2082h-8.0595c-1.7779 0-3.2238-1.4363-3.2238-3.2023v-3.2024c0-5.8987 4.6172-10.74 10.449-11.1675zm8.8938 3.1616h-7.2063c.4223 1.1449.7587 2.5219.7587 4.003 0 3.9789-2.4179 7.2053-2.4179 7.2053s-2.4178-3.2264-2.4178-7.2053c0-1.2906.2643-2.4836.6076-3.5307-3.1561 1.084-5.4433 4.0334-5.4433 7.5336v3.2024h8.0595c4.444 0 8.0595-3.5915 8.0595-8.0059v-3.2024z" clip-rule="evenodd"/>
  <path fill="#C5E1E6" d="M33.5048 35.8023c-.0049-.0081-.0284-.0407-.0284-.0407l-.0283.0375-1.6308 3.1648c-.4223 1.1449-.7587 2.5219-.7587 4.003 0 3.9789 2.4178 7.2053 2.4178 7.2053s2.4179-3.2264 2.4179-7.2053c0-1.2906-.2643-2.4836-.6076-3.5307l-1.7819-3.6339z"/>
  <path fill="#0D444D" d="M7.44774 24.2516c-1.96258 0-3.48064-.5032-4.55419-1.5097-1.07355-1.0232-1.65226-2.4154-1.73613-4.1767l-.02516-1.1071.02516-1.1071c.08387-1.7445.67097-3.1284 1.76129-4.1516 1.09032-1.0233 2.6-1.5349 4.52903-1.5349 1.92903 0 3.43876.5116 4.52906 1.5349 1.0903 1.0232 1.6774 2.4071 1.7613 4.1516.0167.2013.0251.5703.0251 1.1071 0 .5367-.0084.9058-.0251 1.1071-.0839 1.7613-.6626 3.1535-1.7362 4.1767-1.0735 1.0065-2.59158 1.5097-4.55416 1.5097zm0-2.491c.88903 0 1.57678-.2767 2.06323-.8303.48645-.5703.75483-1.4006.80513-2.4909.0168-.1678.0252-.4949.0252-.9813 0-.4865-.0084-.8136-.0252-.9813-.0503-1.0903-.31868-1.9123-.80513-2.4658-.48645-.5704-1.1742-.8555-2.06323-.8555s-1.57677.2851-2.06322.8555c-.48646.5535-.75484 1.3755-.80516 2.4658l-.02517.9813.02517.9813c.05032 1.0903.3187 1.9206.80516 2.4909.48645.5536 1.17419.8303 2.06322.8303zM17.1549 24c-.1678 0-.3103-.0587-.4278-.1761-.1174-.1174-.1761-.26-.1761-.4278V11.52c0-.1677.0587-.3103.1761-.4277.1175-.1175.26-.1762.4278-.1762h2.0632c.1678 0 .3103.0587.4278.1762.1174.1174.1761.26.1761.4277v1.0316c.9897-1.2581 2.3903-1.8871 4.2019-1.8871 1.5432 0 2.7678.5116 3.6736 1.5349.9058 1.0064 1.3587 2.3819 1.3587 4.1264v7.0703c0 .1678-.0587.3104-.1761.4278-.1007.1174-.2433.1761-.4278.1761h-2.2142c-.1677 0-.3103-.0587-.4277-.1761s-.1762-.26-.1762-.4278v-6.9193c0-.9897-.2432-1.7529-.7296-2.2897-.4697-.5536-1.1575-.8303-2.0633-.8303-.889 0-1.5935.2767-2.1135.8303-.5032.5535-.7548 1.3168-.7548 2.2897v6.9193c0 .1678-.0588.3104-.1762.4278-.1006.1174-.2432.1761-.4277.1761h-2.2142zm15.7264 0c-.1678 0-.3103-.0587-.4278-.1761-.1174-.1174-.1761-.26-.1761-.4278V6.73935c0-.18451.0587-.32709.1761-.42774.1175-.11742.26-.17613.4278-.17613h2.0884c.1845 0 .3271.05871.4277.17613.1174.10065.1761.24323.1761.42774V23.3961c0 .1678-.0587.3104-.1761.4278-.1006.1174-.2432.1761-.4277.1761h-2.0884zm6.5331-15.24774c-.1678 0-.3103-.05871-.4278-.17613-.1174-.11742-.1761-.26-.1761-.42774V6.33677c0-.16774.0587-.31032.1761-.42774.1175-.11742.26-.17613.4278-.17613h2.2897c.1677 0 .3103.05871.4277.17613.1342.11742.2013.26.2013.42774v1.81162c0 .16774-.0587.31032-.1761.42774-.1175.11742-.2684.17613-.4529.17613h-2.2897zM39.515 24c-.1677 0-.3103-.0587-.4277-.1761s-.1762-.26-.1762-.4278V11.52c0-.1677.0588-.3103.1762-.4277.1174-.1175.26-.1762.4277-.1762h2.0884c.1845 0 .3271.0587.4277.1762.1175.1006.1762.2432.1762.4277v11.8761c0 .1678-.0587.3104-.1762.4278-.1006.1174-.2432.1761-.4277.1761H39.515zm6.6343 0c-.1677 0-.3103-.0587-.4277-.1761s-.1761-.26-.1761-.4278V11.52c0-.1677.0587-.3103.1761-.4277.1174-.1175.26-.1762.4277-.1762h2.0633c.1677 0 .3103.0587.4277.1762.1174.1174.1761.26.1761.4277v1.0316c.9897-1.2581 2.3904-1.8871 4.202-1.8871 1.5432 0 2.7677.5116 3.6735 1.5349.9058 1.0064 1.3587 2.3819 1.3587 4.1264v7.0703c0 .1678-.0587.3104-.1761.4278-.1006.1174-.2432.1761-.4277.1761h-2.2142c-.1678 0-.3103-.0587-.4278-.1761-.1174-.1174-.1761-.26-.1761-.4278v-6.9193c0-.9897-.2432-1.7529-.7297-2.2897-.4697-.5536-1.1574-.8303-2.0632-.8303-.889 0-1.5935.2767-2.1135.8303-.5033.5535-.7549 1.3168-.7549 2.2897v6.9193c0 .1678-.0587.3104-.1761.4278-.1007.1174-.2432.1761-.4278.1761h-2.2142zm20.7335.2516c-1.8619 0-3.3464-.5368-4.4535-1.6103-1.0903-1.0903-1.669-2.6168-1.7361-4.5794l-.0252-.629.0252-.629c.0838-1.9123.6709-3.4136 1.7613-4.5039 1.1071-1.0903 2.5832-1.6355 4.4283-1.6355 1.9794 0 3.5058.6039 4.5794 1.8116 1.0903 1.2078 1.6355 2.8181 1.6355 4.831v.5284c0 .1677-.0587.3103-.1761.4277-.1175.1174-.2684.1762-.453.1762h-8.3535v.2012c.0335.9226.2852 1.7026.7548 2.34.4865.6207 1.1491.931 1.9878.931.9897 0 1.7864-.3858 2.3903-1.1574.151-.1845.2684-.3019.3523-.3523.1006-.0503.2432-.0754.4277-.0754h2.1639c.1509 0 .2767.0503.3774.1509.1174.0839.1761.1929.1761.3271 0 .4026-.2432.8807-.7297 1.4342-.4696.5368-1.149 1.0065-2.038 1.409-.8891.4026-1.9207.6039-3.0949.6039zm2.7929-7.9258v-.0755c0-.9897-.2516-1.7864-.7548-2.3903-.4864-.6039-1.1658-.9058-2.0381-.9058-.8722 0-1.5516.3019-2.038.9058-.4865.6039-.7297 1.4006-.7297 2.3903v.0755h5.5606zM1.58516 54.1935c-.18451 0-.33548-.0587-.4529-.1761-.10065-.1175-.15097-.2684-.15097-.453v-1.7612c0-.2852.05871-.5033.17613-.6542.11742-.1678.18452-.26.20129-.2768l8.75609-11.3226H1.83677c-.16774 0-.31032-.0587-.42774-.1761-.11742-.1174-.17613-.26-.17613-.4278v-1.7361c0-.1845.05033-.3355.15097-.4529.11742-.1174.26839-.1761.4529-.1761H13.8639c.1845 0 .3355.0587.4529.1761s.1761.2684.1761.4529v1.7361c0 .302-.109.5955-.3271.8807L5.58581 51.1993h8.55479c.1846 0 .3355.0587.4529.1761.1175.1174.1762.2684.1762.4529v1.7613c0 .1845-.0587.3355-.1762.4529-.1174.1007-.2683.151-.4529.151H1.58516z"/>
</svg>
