<svg width="320" height="855" viewBox="0 0 320 855" fill="none" xmlns="http://www.w3.org/2000/svg">
<path d="M164.889 0H-15.3174C-38.3381 0 -57 18.662 -57 41.6826V767.631C-57 784.685 -46.611 800.019 -30.7724 806.342L83.6628 852.029C88.5791 853.992 93.8242 855 99.1178 855H285.149C294.123 855 302.858 852.104 310.054 846.742L541.639 674.182C555.172 664.098 561.289 646.85 557.133 630.493L429.075 126.51C424.379 108.031 407.743 95.0928 388.676 95.0928H313.529C304.103 95.0928 294.955 91.8976 287.578 86.0287L190.84 9.0641C183.464 3.19521 174.316 0 164.889 0Z" fill="#2A8086"/>
</svg>
