<svg width="1200" height="534" viewBox="0 0 1200 534" fill="none" xmlns="http://www.w3.org/2000/svg">
<path d="M1684.17 238.598L1810.9 285.578C1826.59 291.393 1837 306.355 1837 323.084V432.32C1837 454.411 1819.09 472.32 1797 472.32H1615.95C1609.39 472.32 1602.93 473.933 1597.14 477.018L1499.01 529.302C1493.22 532.387 1486.76 534 1480.2 534H1186.07C1177.16 534 1168.51 531.025 1161.48 525.547L1104.04 480.773C1097.02 475.295 1088.36 472.32 1079.45 472.32H865.074C859.665 472.32 854.312 473.417 849.339 475.545L722.619 529.766C717.646 531.894 712.293 532.991 706.883 532.991H531.107C521.414 532.991 512.052 529.472 504.759 523.088L458.079 482.223C450.786 475.839 441.424 472.32 431.732 472.32H64.1929C55.5544 472.32 47.1481 469.523 40.2312 464.349L-95.1792 363.044C-102.096 357.869 -110.502 355.072 -119.141 355.072H-133C-155.091 355.072 -173 337.164 -173 315.072V179.797C-173 175.441 -172.288 171.114 -170.893 166.988L-126.939 36.9629C-121.818 21.8166 -108.171 11.1742 -92.2332 9.89995L31.5928 0H466.567C487.07 0 504.254 15.5031 506.356 35.8983L512.371 94.2504C514.474 114.646 531.657 130.149 552.16 130.149H704.212C711.329 130.149 718.318 128.25 724.456 124.648L871.262 38.5011C877.4 34.899 884.389 33 891.506 33H1239L1557.32 65.8027C1570.29 67.1397 1581.8 74.7181 1588.15 86.1092L1663.14 220.575C1667.78 228.896 1675.24 235.287 1684.17 238.598Z" fill="#2A808D" fill-opacity="0.3"/>
</svg>
