<svg width="1920" height="534" viewBox="0 0 1920 534" fill="none" xmlns="http://www.w3.org/2000/svg">
<path d="M1864.84 240.027L1963.48 284.618C1977.8 291.092 1987 305.351 1987 321.067V432.32C1987 454.411 1969.09 472.32 1947 472.32H1765.95C1759.39 472.32 1752.93 473.933 1747.14 477.018L1649.01 529.302C1643.22 532.387 1636.76 534 1630.2 534H1336.07C1327.16 534 1318.51 531.025 1311.48 525.547L1254.04 480.773C1247.02 475.295 1238.36 472.32 1229.45 472.32H1015.07C1009.67 472.32 1004.31 473.417 999.339 475.545L872.619 529.766C867.646 531.894 862.293 532.991 856.883 532.991H681.107C671.414 532.991 662.052 529.472 654.759 523.088L608.079 482.223C600.786 475.839 591.424 472.32 581.732 472.32H214.193C205.554 472.32 197.148 469.523 190.231 464.349L54.8208 363.044C47.9039 357.869 39.4976 355.072 30.8591 355.072H17C-5.09143 355.072 -23 337.164 -23 315.072V213.219C-23 191.128 -5.09143 173.219 17 173.219H24.8409C37.0492 173.219 48.5891 167.644 56.1768 158.08L169.582 15.1391C177.17 5.5752 188.709 0 200.918 0H616.567C637.07 0 654.254 15.5031 656.356 35.8983L662.371 94.2504C664.474 114.646 681.657 130.149 702.16 130.149H995.436C1002.91 130.149 1010.24 128.053 1016.59 124.1L1193.35 13.9846C1199.7 10.0313 1207.02 7.93576 1214.5 7.93576H1419.63H1731.17C1747.41 7.93576 1762.03 17.7539 1768.19 32.7829L1844.3 218.731C1848.17 228.194 1855.52 235.815 1864.84 240.027Z" fill="#2A808D" fill-opacity="0.3"/>
</svg>
