<svg width="640" height="487" viewBox="0 0 640 487" fill="none" xmlns="http://www.w3.org/2000/svg">
<path d="M31.5685 109.399L-88.1937 217.13C-96.9816 225.035 -102 236.299 -102 248.12V357.733C-102 380.754 -83.338 399.416 -60.3174 399.416H4.08192C9.49978 399.416 14.8657 398.359 19.8794 396.306L217.683 315.297C222.697 313.243 228.062 312.187 233.48 312.187H546.254C555.393 312.187 564.279 315.191 571.543 320.735L663.43 390.867C670.695 396.412 679.58 399.416 688.719 399.416H910.019C917.461 399.416 924.766 401.408 931.178 405.185L1059.65 480.875C1066.06 484.652 1073.36 486.644 1080.8 486.644H1268.95C1274.42 486.644 1279.83 485.569 1284.88 483.479L1399.31 436.144L1537.06 400.729C1540.45 399.857 1543.94 399.416 1547.44 399.416H1750.01C1758.44 399.416 1766.67 396.859 1773.62 392.083L1915.92 294.269C1922.87 289.493 1931.1 286.937 1939.53 286.937H1955.04C1978.06 286.937 1996.72 268.275 1996.72 245.254V154.162C1996.72 131.141 1978.06 112.479 1955.04 112.479H1939.53C1931.1 112.479 1922.87 109.923 1915.92 105.147L1774.6 8.01018C1767.05 2.81546 1757.99 0.258036 1748.83 0.734133L1557.72 10.6689C1547.69 11.1903 1538.19 15.3162 1530.96 22.2875L1411.42 137.532C1403.65 145.022 1393.28 149.207 1382.49 149.207H1289.64C1281.54 149.207 1273.62 146.849 1266.84 142.422L1168.14 77.9457C1161.36 73.5181 1153.44 71.1603 1145.34 71.1603H932.577C925.246 71.1603 918.044 73.0938 911.699 76.7659L770.835 158.285C756.891 166.355 739.545 165.666 726.285 156.517L653.188 106.08C646.227 101.278 637.971 98.7062 629.515 98.7062H391.511H59.4448C49.1511 98.7062 39.2215 102.515 31.5685 109.399Z" fill="#2A808D" fill-opacity="0.3"/>
</svg>
