<svg width="640" height="482" viewBox="0 0 640 482" fill="none" xmlns="http://www.w3.org/2000/svg">
<path d="M31.332 117.324L-89.322 234.223C-97.4256 242.075 -102 252.876 -102 264.159V387.785C-102 410.806 -83.338 429.468 -60.3174 429.468H12.2867H363.282H674.63H914.243C918.97 429.468 923.663 430.272 928.12 431.845L1062.7 479.36C1067.16 480.934 1071.85 481.738 1076.58 481.738H1270.74C1275.04 481.738 1279.32 481.072 1283.42 479.764L1535.99 399.138C1540.08 397.83 1544.36 397.164 1548.66 397.164H1813.32H1918.32C1932.73 397.164 1946.11 389.723 1953.72 377.487L1990.44 318.424C1994.54 311.818 1996.72 304.196 1996.72 296.418V162.094C1996.72 139.074 1978.06 120.412 1955.04 120.412H1940.34C1931.41 120.412 1922.71 117.544 1915.54 112.23L1775.05 8.22041C1767.23 2.43107 1757.63 -0.440395 1747.92 0.103541L1558.51 10.7091C1548.01 11.2972 1538.11 15.8354 1530.82 23.4131L1411.61 147.202C1403.75 155.361 1392.91 159.971 1381.58 159.971H1290.43C1281.84 159.971 1273.46 157.319 1266.44 152.379L1168.54 83.4998C1161.52 78.5592 1153.14 75.9077 1144.56 75.9077H933.553C925.607 75.9077 917.826 78.1789 911.128 82.4536L780.833 165.609C766.694 174.632 748.525 174.302 734.723 164.772L659.692 112.96C652.729 108.152 644.468 105.577 636.007 105.577H391.511H60.3366C49.5098 105.577 39.1078 109.79 31.332 117.324Z" fill="#2A8086"/>
</svg>
