<svg width="1200" height="530" viewBox="0 0 1200 530" fill="none" xmlns="http://www.w3.org/2000/svg">
<path d="M1661.2 237.209L1787.78 283.644C1803.53 289.423 1814 304.418 1814 321.197V428.84C1814 450.931 1796.09 468.84 1774 468.84H1592.4C1585.9 468.84 1579.49 470.424 1573.74 473.457L1475.26 525.383C1469.51 528.415 1463.1 530 1456.6 530H1161.64C1152.8 530 1144.2 527.071 1137.2 521.671L1079.52 477.169C1072.52 471.769 1063.93 468.84 1055.08 468.84H840.046C834.687 468.84 829.383 469.916 824.449 472.006L697.326 525.834C692.392 527.923 687.088 529 681.729 529H505.36C495.739 529 486.44 525.532 479.169 519.233L432.274 478.607C425.003 472.307 415.704 468.84 406.083 468.84H37.5273C28.9574 468.84 20.614 466.087 13.7262 460.988L-122.095 360.432C-128.983 355.333 -137.326 352.58 -145.896 352.58H-160C-182.091 352.58 -200 334.672 -200 312.58V212.26C-200 190.168 -182.091 172.26 -160 172.26H-151.9C-139.763 172.26 -128.283 166.749 -120.691 157.28L-7.0094 15.4798C0.582275 6.01041 12.0626 0.5 24.1995 0.5H440.95C461.437 0.5 478.612 15.979 480.735 36.3557L486.708 93.6963C488.831 114.073 506.006 129.552 526.493 129.552H719.365C726.334 129.552 733.182 127.731 739.23 124.271L887.77 39.2813C893.818 35.8206 900.666 34 907.635 34H1114L1522.33 43.9362C1536.66 44.2849 1549.71 52.2757 1556.53 64.8821L1639.8 218.699C1644.44 227.27 1652.05 233.852 1661.2 237.209Z" fill="#2A8086"/>
</svg>
