<svg width="320" height="606" viewBox="0 0 320 606" fill="none" xmlns="http://www.w3.org/2000/svg">
<path opacity="0.3" d="M168.505 0H-15.3174C-38.3381 0 -57 18.6619 -57 41.6826V532.567C-57 551.217 -44.6117 567.597 -26.6665 572.675L85.5394 604.425C89.232 605.47 93.0511 606 96.8886 606H288.64C295.425 606 302.107 604.344 308.106 601.176L532.026 482.918C550.371 473.229 558.799 451.524 551.797 431.994L430.992 95.0153C425.054 78.4503 409.352 67.3991 391.755 67.3991H309.913C302.74 67.3991 295.688 65.5478 289.439 62.0243L188.979 5.37481C182.731 1.8513 175.679 0 168.505 0Z" fill="#2A8086"/>
</svg>
