<svg width="1920" height="530" viewBox="0 0 1920 530" fill="none" xmlns="http://www.w3.org/2000/svg">
<path d="M1841.56 238.512L1940.33 282.679C1954.73 289.118 1964 303.42 1964 319.194V428.84C1964 450.931 1946.09 468.84 1924 468.84H1742.4C1735.9 468.84 1729.49 470.424 1723.74 473.457L1625.26 525.383C1619.51 528.415 1613.1 530 1606.6 530H1311.64C1302.8 530 1294.2 527.071 1287.2 521.671L1229.52 477.169C1222.52 471.769 1213.93 468.84 1205.08 468.84H990.046C984.687 468.84 979.383 469.916 974.449 472.006L847.326 525.834C842.392 527.923 837.088 529 831.729 529H655.36C645.739 529 636.44 525.532 629.169 519.233L582.274 478.607C575.003 472.307 565.704 468.84 556.083 468.84H187.527C178.957 468.84 170.614 466.087 163.726 460.988L27.905 360.432C21.0172 355.333 12.6738 352.58 4.10388 352.58H-10C-32.0914 352.58 -50 334.672 -50 312.58V212.26C-50 190.168 -32.0914 172.26 -10 172.26H-1.8999C10.2369 172.26 21.7173 166.749 29.309 157.28L142.991 15.4798C150.582 6.01041 162.063 0.5 174.199 0.5H590.95C611.437 0.5 628.612 15.979 630.735 36.3557L636.708 93.6963C638.831 114.073 656.006 129.552 676.493 129.552H1015.38C1022.97 129.552 1030.4 127.392 1036.81 123.324L1208.91 14.0917C1215.32 10.0235 1222.75 7.86328 1230.34 7.86328H1395.5H1707.74C1723.93 7.86328 1738.53 17.6315 1744.71 32.6039L1820.92 217.256C1824.82 226.723 1832.21 234.331 1841.56 238.512Z" fill="#2A8086"/>
</svg>
