<svg width="320" height="667" viewBox="0 0 320 667" fill="none" xmlns="http://www.w3.org/2000/svg">
<path opacity="0.3" d="M166.556 0.645752H-14.9326C-37.9533 0.645752 -56.6152 19.3077 -56.6152 42.3283V584.718C-56.6152 602.389 -45.4724 618.14 -28.8092 624.023L84.7035 664.098C89.1608 665.672 93.8532 666.476 98.5801 666.476H292.74C297.042 666.476 301.318 665.81 305.416 664.502L525.604 594.213C547.083 587.356 559.216 564.663 552.99 542.993L429.98 114.881C424.847 97.016 408.506 84.7089 389.918 84.7089H312.426C303.84 84.7089 295.463 82.0575 288.441 77.1169L190.541 8.23785C183.519 3.29725 175.142 0.645752 166.556 0.645752Z" fill="#2A8086"/>
</svg>
