<svg width="640" height="482" viewBox="0 0 640 482" fill="none" xmlns="http://www.w3.org/2000/svg">
<path d="M31.332 117.585L-89.322 234.485C-97.4256 242.336 -102 253.138 -102 264.421V388.047C-102 411.068 -83.338 429.73 -60.3174 429.73H12.2867H363.282H674.63H914.243C918.97 429.73 923.663 430.534 928.12 432.107L1062.7 479.622C1067.16 481.196 1071.85 482 1076.58 482H1270.74C1275.04 482 1279.32 481.334 1283.42 480.026L1535.99 399.4C1540.08 398.091 1544.36 397.426 1548.66 397.426H1813.32H1919.94C1934.6 397.426 1948.18 389.723 1955.71 377.14L1990.81 318.462C1994.68 311.995 1996.72 304.6 1996.72 297.064V162.356C1996.72 139.336 1978.06 120.674 1955.04 120.674H1940.34C1931.41 120.674 1922.71 117.806 1915.54 112.492L1775.05 8.48238C1767.23 2.69303 1757.63 -0.178432 1747.92 0.365504L1558.51 10.9711C1548.01 11.5592 1538.11 16.0973 1530.82 23.6751L1411.61 147.464C1403.75 155.623 1392.91 160.233 1381.58 160.233H1290.43C1281.84 160.233 1273.46 157.581 1266.44 152.641L1168.54 83.7618C1161.52 78.8212 1153.14 76.1697 1144.56 76.1697H936.291C926.653 76.1697 917.312 79.5099 909.859 85.6218L764.078 205.175C756.626 211.286 747.285 214.627 737.647 214.627H550.83C541.83 214.627 533.072 211.714 525.865 206.324L402.612 114.142C395.405 108.752 386.647 105.839 377.647 105.839H60.3366C49.5098 105.839 39.1078 110.052 31.332 117.585Z" fill="#2A808D" fill-opacity="0.3"/>
</svg>
