<svg width="1920" height="463" viewBox="0 0 1920 463" fill="none" xmlns="http://www.w3.org/2000/svg">
<path d="M121.95 113.296L6.16623 225.477C-1.61027 233.011 -6 243.376 -6 254.204V372.84C-6 394.931 11.9086 412.84 34 412.84H103.673H440.5H739.28H969.221C973.757 412.84 978.26 413.611 982.537 415.121L1111.69 460.718C1115.97 462.228 1120.47 463 1125 463H1311.33C1315.46 463 1319.56 462.361 1323.49 461.106L1565.86 383.734C1569.8 382.479 1573.9 381.84 1578.03 381.84H1832H1932.77C1946.59 381.84 1959.44 374.7 1966.74 362.957L2001.97 306.278C2005.91 299.94 2008 292.625 2008 285.161V156.259C2008 134.168 1990.09 116.259 1968 116.259H1953.9C1945.33 116.259 1936.98 113.507 1930.09 108.408L1795.28 8.59694C1787.78 3.0413 1778.57 0.285744 1769.24 0.807723L1587.48 10.9852C1577.4 11.5495 1567.91 15.9045 1560.9 23.1763L1446.51 141.968C1438.97 149.798 1428.57 154.222 1417.7 154.222H1330.22C1321.98 154.222 1313.94 151.677 1307.2 146.936L1213.25 80.8375C1206.52 76.0964 1198.48 73.5519 1190.24 73.5519H990.378C981.129 73.5519 972.166 76.7573 965.014 82.6225L825.117 197.349C817.966 203.214 809.002 206.42 799.753 206.42H620.477C611.84 206.42 603.436 203.625 596.52 198.452L478.243 109.991C471.327 104.819 462.922 102.024 454.286 102.024H149.784C139.394 102.024 129.412 106.066 121.95 113.296Z" fill="#2A8086"/>
</svg>
