<svg version="1.2" xmlns="http://www.w3.org/2000/svg" viewBox="0 0 566 792" width="23">
	<path fill="#b3b3b3" id="Layer" class="shp0" d="M170.86 0L57.71 0C26.49 0 1.14 25.34 1.14 56.57L1.14 735.43C1.14 766.66 26.49 792 57.71 792L170.86 792C202.11 792 227.43 766.68 227.43 735.43L227.43 56.57C227.43 25.34 202.11 0 170.86 0ZM510.28 0L397.14 0C365.89 0 340.57 25.34 340.57 56.57L340.57 735.43C340.57 766.66 365.89 792 397.14 792L510.29 792C541.54 792 566.86 766.68 566.86 735.43L566.86 56.57C566.86 25.34 541.54 0 510.28 0Z" />
</svg>