<svg width="148" height="280" viewBox="0 0 148 280" fill="none" xmlns="http://www.w3.org/2000/svg">
<path d="M21.1836 31H10.6836L15.1836 75L16.1836 110H28.1836L23.1836 75L21.1836 31Z" fill="#216E7A"/>
<path d="M26.728 116H18.2911C17.6986 116 17.236 116.512 17.2963 117.102L21.6836 160L22.6558 194.029C22.6713 194.57 23.1143 195 23.6554 195H33.5306C34.1391 195 34.6066 194.461 34.5205 193.859L29.6836 160L27.727 116.955C27.7027 116.421 27.2626 116 26.728 116Z" fill="#216E7A"/>
<path d="M47.1621 146L37.5381 146C36.95 146 36.4889 146.505 36.5422 147.091L38.6159 169.852L38.6159 190.387C38.6159 190.982 39.1312 191.445 39.7221 191.382L49.9766 190.286C50.5468 190.225 50.949 189.698 50.8575 189.132L47.6981 169.59C47.6885 169.53 47.6842 169.47 47.6855 169.409L48.1619 147.021C48.1738 146.461 47.7227 146 47.1621 146Z" fill="#216E7A"/>
<path d="M33.228 201H24.7911C24.1986 201 23.736 201.512 23.7963 202.102L28.1751 244.917C28.1808 244.972 28.1818 245.028 28.1782 245.083L27.2523 259.436C27.2151 260.012 27.6726 260.5 28.2502 260.5H37.9715C38.6 260.5 39.0727 259.927 38.9533 259.31L36.1975 245.072C36.1882 245.024 36.1825 244.976 36.1803 244.927L34.227 201.955C34.2027 201.421 33.7626 201 33.228 201Z" fill="#216E7A"/>
<path d="M4.8834 219.387C10.7019 215.918 19.0407 204.294 19.6483 195.498C19.6864 194.947 19.2432 194.602 18.7814 194.905C15.152 197.286 3.94012 209.667 3.64182 218.656C3.61955 219.327 4.30673 219.731 4.8834 219.387Z" fill="#216E7A"/>
<path d="M1.00198 186.18C3.14249 192.385 11.4219 193.413 17.1885 193.159C17.5616 193.143 17.9238 192.907 17.9047 192.534C17.7549 189.604 8.1882 185.553 1.90167 185.052C1.27232 185.001 0.79609 185.583 1.00198 186.18Z" fill="#216E7A"/>
<path d="M33.4868 133.495C40.7419 131.936 53.0738 122.974 55.9846 114.549C56.1649 114.027 55.8289 113.558 55.2941 113.696C50.8341 114.846 35.0484 123.745 32.5061 132.456C32.3247 133.078 32.8537 133.631 33.4868 133.495Z" fill="#216E7A"/>
<path d="M133.636 160.3C129.26 166.293 116.056 173.912 107.174 173.142C106.624 173.095 106.333 172.597 106.676 172.165C109.541 168.558 124.093 157.759 133.086 158.981C133.727 159.068 134.018 159.777 133.636 160.3Z" fill="#216E7A"/>
<path d="M146.271 55.9241C138.468 62.939 117.463 69.3555 106.103 64.9756C105.587 64.777 105.414 64.2072 105.831 63.8451C110.276 59.9873 134.802 49.189 146.068 54.4862C146.643 54.7562 146.743 55.4998 146.271 55.9241Z" fill="#216E7A"/>
<path d="M113.919 33.2697C114.432 41.4772 108.599 57.124 100.671 62.1721C100.205 62.4687 99.6586 62.2597 99.6433 61.7076C99.5066 56.7723 104.312 37.2227 112.677 32.5734C113.231 32.2654 113.88 32.6369 113.919 33.2697Z" fill="#216E7A"/>
<path d="M128.733 87.9074C124.988 79.9922 112.625 68.8142 104.18 68.7566C103.628 68.7528 103.273 69.2341 103.525 69.726C105.861 74.2996 119.531 89.7531 128.073 89.1144C128.669 89.0698 128.989 88.4476 128.733 87.9074Z" fill="#216E7A"/>
<path d="M68.9451 29.6021L58.4624 29L60.4318 73.1856L59.4231 108.185L71.4033 108.874L68.4186 73.6444L68.9451 29.6021Z" fill="#216E7A"/>
<path d="M99.632 1.69669L89.27 0L86.6009 44.1489L81.9321 78.8505L93.7744 80.7896L94.4958 45.4416L99.632 1.69669Z" fill="#216E7A"/>
<path d="M111.568 94.5294L98.0288 92L94.3803 136.111L88.152 170.577L103.625 173.468L104.696 138.038L111.568 94.5294Z" fill="#216E7A"/>
<path d="M69.6059 114.78L61.1828 114.296C60.5913 114.262 60.1001 114.747 60.1265 115.339L62.0466 158.419L61.0658 192.447C61.0502 192.988 61.4678 193.443 62.0081 193.474L71.867 194.04C72.4745 194.075 72.9721 193.564 72.9207 192.958L70.0334 158.877L70.5484 115.791C70.5548 115.256 70.1396 114.811 69.6059 114.78Z" fill="#216E7A"/>
<path d="M91.3682 86.4756L83.0422 85.1123C82.4574 85.0166 81.9181 85.4474 81.8824 86.0388L79.2801 129.082L74.7409 162.821C74.6688 163.357 75.0363 163.853 75.5704 163.941L85.3158 165.537C85.9163 165.635 86.4647 165.179 86.4772 164.57L87.175 130.375L92.1998 87.5791C92.2621 87.0481 91.8958 86.562 91.3682 86.4756Z" fill="#216E7A"/>
<path d="M100.765 179.042L89.2758 176.895C88.6811 176.784 88.1082 177.219 88.0585 177.819L84.5039 220.796L78.3582 257.121C78.2631 257.683 78.6604 258.196 79.2305 258.247L92.1062 259.403C92.6876 259.455 93.2055 259.007 93.2313 258.428L94.8194 222.723L101.545 180.144C101.627 179.622 101.285 179.139 100.765 179.042Z" fill="#216E7A"/>
<path d="M71.2351 200.014L62.7965 199.529C62.2055 199.495 61.7146 199.979 61.7401 200.571L63.1805 233.928C63.1825 233.976 63.1811 234.024 63.1762 234.072L60.7855 257.501C60.7293 258.052 61.1317 258.544 61.6829 258.598L74.4938 259.852C75.1341 259.915 75.6661 259.366 75.5829 258.728L72.2681 233.325L72.1777 201.009C72.1763 200.48 71.7631 200.044 71.2351 200.014Z" fill="#216E7A"/>
<path d="M43.5161 86.2623C40.8778 94.0961 49.067 102.718 55.3893 107.704C55.6755 107.93 56.088 107.996 56.3286 107.722C58.6838 105.043 51.3361 92.0469 44.9639 85.9318C44.4911 85.4782 43.7252 85.6413 43.5161 86.2623Z" fill="#216E7A"/>
<path d="M121.785 199.041C114.2 198.513 109.237 188.26 106.844 180.912C106.732 180.569 106.81 180.158 107.152 180.044C110.248 179.005 119.231 190.015 122.615 197.812C122.88 198.421 122.447 199.088 121.785 199.041Z" fill="#216E7A"/>
<path d="M49.5215 195.459L39.8975 195.459C39.3094 195.459 38.8482 195.964 38.9016 196.549L40.9753 219.311L40.9753 258.887C40.9753 259.482 41.4905 259.945 42.0815 259.882L52.4131 258.778C52.9535 258.72 53.3489 258.241 53.3033 257.7L50.043 218.959L50.5212 196.48C50.5332 195.919 50.0821 195.459 49.5215 195.459Z" fill="#216E7A"/>
</svg>
