<svg xmlns="http://www.w3.org/2000/svg" fill="none" viewBox="0 0 64 64">
  <circle cx="47" cy="42" r="8" fill="#216E7A" opacity=".8"/>
  <circle cx="17" cy="42" r="8" fill="#216E7A" opacity=".8"/>
  <path fill="#216E7A" d="M21 12c-2.9102 0-5.3906 2.0703-5.8438 4.875-.0117.0664-.0546.1211-.0624.1875h.0312c-.0352.1523-.0742.293-.0938.4375-.3046.2109-.5976.4375-.8437.6875-1.1758 1.1875-1.6719 2.6797-2.0313 3.9063-.0039.0078.004.0234 0 .0312C10.8594 26.1133 8.53516 35.5547 8 37.7188 7.375 39.0234 7 40.4609 7 42c0 5.5117 4.4883 10 10 10 5.3867 0 9.7695-4.2852 9.9688-9.625C28.1016 43.2109 29.7422 44 32 44s3.8984-.7891 5.0312-1.625C37.2305 47.7148 41.6133 52 47 52c5.5117 0 10-4.4883 10-10 0-1.1289-.1836-2.207-.5312-3.2188-.1641-.6562-3.1172-12.3906-4.4063-16.6562v-.0312c-.4063-1.2188-.9453-2.711-2.125-3.9063-.293-.2969-.625-.5703-1-.8125-.0195-.1055-.0352-.2031-.0625-.3125h.0312c-.0078-.0664-.0507-.1211-.0624-.1875C48.3906 14.0703 45.9102 12 43 12c-3.3242 0-6 2.6758-6 6 0 .7344.1211 1.4453.3438 2.0938-.4649.539-.8555 1.0273-1.125 1.2812-.1133.1055-.1211.1016-.1563.125-1.1367-.8359-2.5078-1.4062-3.9687-1.4062-1.4571 0-2.8907.5234-4 1.4062-.0391-.0234-.043-.0195-.1563-.125-.293-.2734-.7344-.8086-1.25-1.4062C26.8867 19.3516 27 18.6914 27 18c0-3.3242-2.6758-6-6-6zm0 2c2.2773 0 4 1.7227 4 4 0 .0859-.0273.1641-.0312.25-1.2696-1.0898-2.9024-2.0625-5.0626-2.0625-.9687 0-1.8359.0937-2.5937.2813C17.8633 15.0156 19.293 14 21 14zm22 0c1.6914 0 3.0938 1.0039 3.6562 2.4375-.6992-.1602-1.4687-.25-2.3437-.25-2.2422 0-3.9766 1.043-5.2813 2.1875C39.0195 18.2461 39 18.125 39 18c0-2.2773 1.7227-4 4-4zm-23.0938 4.1875c1.9961 0 3.375 1.0742 4.5313 2.2813.0117.5039.4023.9218.9063.9687.4257.4961.832.9844 1.25 1.375.2851.2656.5742.5195 1.0312.6563.457.1367 1.1055.0351 1.5-.2813l.0312-.0313c.668-.5937 1.8946-1.0624 2.9376-1.0624 1.0429 0 2.1406.4296 2.9687 1.0937v-.0313h.0313c.3867.3165 1.0234.4493 1.4687.3126.457-.1407.7187-.3907 1-.6563.4219-.3984.8398-.8984 1.2813-1.4063.3476-.1054.6132-.3945.6874-.75 1.2071-1.2851 2.6758-2.4687 4.7813-2.4687 1.3164 0 2.2539.1992 2.9687.5313.1211.121.2735.207.4376.25.0312.0117.0624.0234.0937.0312.2695.1758.5117.3828.7187.5938.7891.8007 1.2344 1.9218 1.625 3.0937.004.0078-.0039.0234 0 .0313.7696 2.5507 2.0508 7.3984 3.0938 11.4687C51.5352 32.8086 49.3633 32 47 32c-4.5312 0-8.3711 3.043-9.5938 7.1875-.0742.0625-.1367.1367-.1874.2187 0 0-1.2891 2.5938-5.2188 2.5938s-5.2188-2.5938-5.2188-2.5938c-.0507-.0937-.1132-.1757-.1874-.25C25.3633 35.0273 21.5234 32 17 32c-2.2656 0-4.3516.7578-6.0312 2.0312 1.0351-4.0624 2.289-8.8359 3.0937-11.3124v-.0313c.3398-1.1641.7422-2.293 1.5313-3.0937.789-.8008 2-1.4063 4.3124-1.4063zM32 32c-2.1992 0-4 1.8008-4 4 0 2.1992 1.8008 4 4 4 2.1992 0 4-1.8008 4-4 0-2.1992-1.8008-4-4-4zm-15 2c4.4297 0 8 3.5703 8 8s-3.5703 8-8 8-8-3.5703-8-8c0-.6016.0625-1.1875.1875-1.75.19922-.1523.33203-.375.375-.625 0 0 .26172-1.0781.3125-1.2812C11.1992 35.7617 13.8906 34 17 34zm15 0c1.1172 0 2 .8828 2 2s-.8828 2-2 2-2-.8828-2-2 .8828-2 2-2zm15 0c3.4844 0 6.4297 2.2148 7.5312 5.3125.004.0156.0938.3437.0938.3437.0273.1016.0703.1954.125.2813.1758.6563.25 1.3477.25 2.0625 0 4.4297-3.5703 8-8 8s-8-3.5703-8-8 3.5703-8 8-8zm-35.0938 6.9688c-.0429.0078-.0859.0195-.125.0312-.4648.1055-.7929.5234-.7812 1 0 3.3242 2.6758 6 6 6 .3594.0039.6953-.1836.8789-.4961.1797-.3125.1797-.6953 0-1.0078-.1836-.3125-.5195-.5-.8789-.4961-2.2773 0-4-1.7227-4-4 .0117-.2891-.1055-.5664-.3125-.7617-.2109-.1992-.4961-.2969-.7813-.2695zm31 0c-.0429.0078-.0859.0195-.125.0312-.4648.1055-.7929.5234-.7812 1 0 3.3242 2.6758 6 6 6 .3594.0039.6953-.1836.8789-.4961.1797-.3125.1797-.6953 0-1.0078-.1836-.3125-.5195-.5-.8789-.4961-2.2773 0-4-1.7227-4-4 .0117-.2891-.1055-.5664-.3125-.7617-.2109-.1992-.4961-.2969-.7813-.2695z"/>
  <path fill="#fff" d="M42.9819 41.8108c-.1045-.5423-.6288-.8972-1.1711-.7927-.5423.1045-.8972.6288-.7927 1.1711l1.9638-.3784zm3.8993 6.1821c.5483.0656 1.0461-.3257 1.1117-.8741.0656-.5483-.3257-1.0461-.8741-1.1117l-.2376 1.9858zm-5.8631-5.8037c.3419 1.7746.819 3.1797 1.7962 4.1688.997 1.0091 2.3563 1.4302 4.0669 1.6349l.2376-1.9858c-1.5566-.1863-2.3627-.5294-2.8818-1.0547-.5387-.5453-.9281-1.4447-1.2551-3.1416l-1.9638.3784zM12.9819 41.8108c-.1045-.5423-.6288-.8972-1.1711-.7927-.5423.1045-.8972.6288-.7927 1.1711l1.9638-.3784zm3.8993 6.1821c.5483.0656 1.0461-.3257 1.1117-.8741.0656-.5483-.3257-1.0461-.8741-1.1117l-.2376 1.9858zm-5.8631-5.8037c.3419 1.7746.819 3.1797 1.7962 4.1688.997 1.0091 2.3563 1.4302 4.0669 1.6349l.2376-1.9858c-1.5566-.1863-2.3627-.5294-2.8818-1.0547-.5387-.5453-.9281-1.4447-1.2551-3.1416l-1.9638.3784z"/>
</svg>
