<svg xmlns="http://www.w3.org/2000/svg" fill="none" viewBox="0 0 20 18">
  <path stroke="#19707D" stroke-linecap="round" stroke-linejoin="round" stroke-width="1.5" d="M17.513 9.58341l-7.5 7.42799-7.5-7.42799a5.000069 5.000069 0 01-1.14446-1.69937 5.000126 5.000126 0 01-.36681-2.0157 5.000155 5.000155 0 01.47242-1.9936 5.00001 5.00001 0 011.23233-1.63675 4.999931 4.999931 0 011.78533-1.0051 4.9999 4.9999 0 012.03855-.20468 4.999971 4.999971 0 011.94951.6301 5.000092 5.000092 0 011.53313 1.3591 4.999222 4.999222 0 011.5351-1.3474c.599-.33871 1.2614-.55015 1.9458-.62108a5.000206 5.000206 0 012.0319.20887 4.999336 4.999336 0 011.7787 1.00397c.5176.45349.9359 1.00892 1.2289 1.63153.293.62261.4543 1.29899.4739 1.98682.0196.68782-.103 1.37228-.3602 2.01054a4.999668 4.999668 0 01-1.1341 1.69875"/>
</svg>
